<svg xmlns="http://www.w3.org/2000/svg" xmlns:xlink="http://www.w3.org/1999/xlink" width="24" height="23.401" viewBox="0 0 24 23.401001" enable-background="new 0 0 24 23.401001"><defs><path id="a" d="M1 1v21.4h22V1z"/></defs><clipPath id="c"><use xlink:href="#a" overflow="visible"/></clipPath><defs><filter id="b" filterUnits="userSpaceOnUse" x="-4.289" y="-4.437" width="32.579" height="32.275"><feColorMatrix values="1 0 0 0 0 0 1 0 0 0 0 0 1 0 0 0 0 0 1 0"/></filter></defs><mask maskUnits="userSpaceOnUse" x="-4.289" y="-4.437" width="32.579" height="32.275" id="g"><g filter="url(#b)"><defs><path id="d" d="M21.563 27.84L-4.29 21.002l6.727-25.44L28.29 2.4z"/></defs><clipPath id="e" clip-path="url(#c)"><use xlink:href="#d" overflow="visible"/></clipPath><radialGradient id="f" cx="-272.406" cy="400.961" r="1.035" gradientTransform="matrix(13.403 3.544 3.544 -13.403 2239.832 6347.738)" gradientUnits="userSpaceOnUse"><stop offset="0" stop-color="#D9D9D9"/><stop offset=".767" stop-color="#fff"/><stop offset="1" stop-color="#fff"/></radialGradient><path clip-path="url(#e)" fill="url(#f)" d="M-2.16-12.488l38.426 10.16L26.16 35.89l-38.425-10.16z"/></g></mask><radialGradient id="h" cx="-272.406" cy="400.961" r="1.035" gradientTransform="matrix(13.403 3.544 3.544 -13.403 2239.832 6347.738)" gradientUnits="userSpaceOnUse"><stop offset="0" stop-color="#002D33"/><stop offset=".767" stop-color="#002D33"/><stop offset="1" stop-color="#002D33"/></radialGradient><path clip-path="url(#c)" mask="url(#g)" fill="url(#h)" d="M2.437-4.437L28.29 2.4l-6.727 25.438-25.852-6.836z"/><path fill="#00B9CF" d="M1 1h22v21.402H1V1zM0 23.4h24V0H0v23.4z"/><path fill-rule="evenodd" clip-rule="evenodd" fill="#00B9CF" d="M5.8 5.48c0-.066.14-.116.224-.116.643-.033 1.588-.05 2.578-.05 2.773 0 3.852 1.52 3.852 3.466 0 2.54-1.843 3.63-4.103 3.63-.38 0-.51-.017-.775-.017v3.842c0 .083-.033.116-.115.116H5.915c-.08 0-.115-.032-.115-.115V5.48zm1.775 5.313c.23.016.413.016.81.016 1.17 0 2.27-.413 2.27-1.998 0-1.27-.787-1.914-2.123-1.914-.396 0-.775.017-.957.034v3.86zm8.607-1.188c-.792 0-1.056.396-1.056.726 0 .364.182.612 1.237 1.156 1.57.76 2.063 1.485 2.063 2.557 0 1.6-1.22 2.46-2.87 2.46-.875 0-1.62-.183-2.048-.43-.066-.033-.083-.083-.083-.166V14.44c0-.1.05-.133.116-.083.628.412 1.355.594 2.015.594.792 0 1.122-.33 1.122-.774 0-.364-.23-.677-1.237-1.205-1.42-.675-2.013-1.368-2.013-2.524 0-1.287 1.006-2.36 2.755-2.36.858 0 1.464.133 1.794.282.083.05.1.13.1.197v1.37c0 .083-.05.132-.15.1-.445-.266-1.1-.43-1.744-.43"/></svg>