<?xml version="1.0" encoding="utf-8"?>
<!-- Generator: Adobe Illustrator 19.0.1, SVG Export Plug-In . SVG Version: 6.00 Build 0)  -->
<svg version="1.1" id="Layer_2" xmlns="http://www.w3.org/2000/svg" xmlns:xlink="http://www.w3.org/1999/xlink" x="0px" y="0px"
	 viewBox="0 0 500 500" style="enable-background:new 0 0 500 500;" xml:space="preserve">
<style type="text/css">
	.st0
	{
		stroke:#fff;
		stroke-width:2;
		fill:transparent;
		stroke-dasharray:1500;
		stroke-dashoffset:0;
		-webkit-animation: dash 12s linear forwards;
		animation: dash 12s linear forwards;

	}

	@-webkit-keyframes dash
	{
		from
		{
			stroke-dashoffset:1500;
			fill:transparent;
		}
		to
		{
			stroke-dashoffset:0;
			fill:#10bae2;
			stroke:transparent;
		}
	}


</style>
<g>
	<g>
		<polygon class="st0" points="129,168.6 193.3,242.6 129,314.9 132,314.9 194.7,244.2 205.5,256.4 153.4,315.2 164,315.2 
			214.7,256.9 137.4,168.6 		"/>
	</g>
	<polygon class="st0" points="152.6,168.6 218.2,243.1 218.2,315.4 224.4,315.4 224.4,168.6 217.8,168.6 218.3,239.2 155.8,168.6 	
		"/>
	<path class="st0" d="M304.7,232.2l-70.8-63.7v146.7h6.4v-98l42.2,38.6l83.8-76.6v10.2l-77.7,71.8l5.7,6l52.2-47.5v95.7h4l-0.3-99.6
		l16.1-14.5v114h7.7V168.6L304.7,232.2z M282.5,251.9l-42.2-38v-22.3l54,49.5L282.5,251.9z"/>
	<path class="st0" d="M251.4,18.3L27.9,242l223.9,223.5l220.2-224.1L251.4,18.3z M251.6,449.2L43.7,241.9L251.6,33.5L460.3,242
		L251.6,449.2z"/>
</g>
</svg>
