<?xml version="1.0" encoding="utf-8"?>
<!-- Generator: Adobe Illustrator 19.0.1, SVG Export Plug-In . SVG Version: 6.00 Build 0)  -->
<svg version="1.1" id="Layer_1" xmlns="http://www.w3.org/2000/svg" xmlns:xlink="http://www.w3.org/1999/xlink" x="0px" y="0px"
	 viewBox="-102 265.9 390 310" style="enable-background:new -102 265.9 390 310;" xml:space="preserve">
<style type="text/css">
	.st0{fill:none;stroke:#10BAE2;stroke-width:4;stroke-miterlimit:10;}
	.st1{fill:#10BAE2;}
</style>
<path class="st0" d="M236.4,399c0-47.3-63.1-85.7-141-85.7s-141,38.4-141,85.7c0,40.2,45.5,73.9,106.8,83.2l-42.8,46.2l86.1-43.9
	C178.1,481.7,236.4,444.5,236.4,399z"/>
<g>
	<path class="st1" d="M33.3,422.5c-3.7,1.9-7.4,2.7-11.9,2.7c-11,0-20.3-8-20.3-20.9c0-13.8,9.6-25.7,24.4-25.7
		c11.7,0,19.5,8.2,19.5,19.4c0,10-5.6,15.9-11.9,15.9c-2.7,0-5.2-1.8-5-5.9h-0.3c-2.3,4-5.4,5.9-9.4,5.9c-3.9,0-7.2-3.1-7.2-8.4
		c0-8.3,6.6-15.9,15.9-15.9c2.9,0,5.4,0.6,7.2,1.4L32,403.1c-1,5.1-0.2,7.4,2,7.5c3.4,0.1,7.2-4.5,7.2-12.3
		c0-9.7-5.8-16.7-16.2-16.7c-10.9,0-20.1,8.6-20.1,22.2c0,11.2,7.3,18.1,17.2,18.1c3.8,0,7.4-0.8,10.1-2.3L33.3,422.5z M29.6,393.6
		c-0.7-0.2-1.8-0.5-3.3-0.5c-5.9,0-10.7,5.6-10.7,12.1c0,2.9,1.5,5.1,4.4,5.1c3.9,0,7.4-5,8.2-9.1L29.6,393.6z"/>
	<path class="st1" d="M53.8,418.2l1.7-13.1h-5.5v-4h6.1l1.3-9.7h-5.8v-4H58l1.7-12.8h3.9L62,387.5h7l1.7-12.8h4L73,387.5h5.5v4h-6.1
		l-1.2,9.7h5.8v4h-6.4l-1.7,13.1h-4l1.7-13.1h-7l-1.7,13.1H53.8z M67.2,401.2l1.3-9.7h-7l-1.3,9.7H67.2z"/>
	<path class="st1" d="M95.5,424v-6.8c-3.9-0.1-7.9-1.3-10.2-2.9l1.6-4.5c2.4,1.6,5.9,2.9,9.6,2.9c4.8,0,8-2.7,8-6.6
		c0-3.7-2.6-6-7.6-8c-6.8-2.7-11.1-5.8-11.1-11.6c0-5.6,4-9.8,10.1-10.8V369h4.2v6.5c4,0.1,6.8,1.2,8.7,2.3l-1.7,4.4
		c-1.4-0.8-4.2-2.3-8.4-2.3c-5.2,0-7.1,3.1-7.1,5.8c0,3.5,2.5,5.2,8.3,7.6c6.9,2.8,10.4,6.3,10.4,12.3c0,5.3-3.7,10.2-10.6,11.4v7
		H95.5z"/>
	<path class="st1" d="M137.9,387c0,9.2-4.8,13.7-10.5,13.7c-5.4,0-10.1-4.4-10.2-13.1c0-8.7,4.8-13.6,10.5-13.6
		C133.9,374,137.9,378.7,137.9,387z M121.9,387.4c-0.1,5.6,1.9,9.8,5.6,9.8c3.9,0,5.6-4.2,5.6-9.9c0-5.3-1.5-9.7-5.6-9.7
		C123.9,377.5,121.9,381.9,121.9,387.4z M127,419l25.6-45h3.8l-25.6,45H127z M166.2,405c0,9.2-4.8,13.7-10.4,13.7
		c-5.4,0-10.1-4.4-10.2-13.1c0-8.8,4.8-13.7,10.5-13.7C162.3,392,166.2,396.7,166.2,405z M150.3,405.4c-0.1,5.6,2.1,9.8,5.7,9.8
		c3.9,0,5.6-4.2,5.6-9.9c0-5.3-1.5-9.7-5.6-9.7C152.3,395.5,150.3,399.9,150.3,405.4z"/>
	<path class="st1" d="M172.1,414.8c0-2.4,1.7-4.2,4-4.2c2.4,0,4,1.7,4,4.2c0,2.3-1.5,4.2-4,4.2C173.7,419,172.1,417.2,172.1,414.8z
		 M173.7,405.3l-0.9-32.2h6.4l-0.9,32.2H173.7z"/>
</g>
</svg>
