<?xml version="1.0" encoding="utf-8"?>
<!-- Generator: Adobe Illustrator 19.0.1, SVG Export Plug-In . SVG Version: 6.00 Build 0)  -->
<svg version="1.1" id="Layer_1" xmlns="http://www.w3.org/2000/svg" xmlns:xlink="http://www.w3.org/1999/xlink" x="0px" y="0px"
	 viewBox="-102 265.9 390 310" style="enable-background:new -102 265.9 390 310;" xml:space="preserve">
<style type="text/css">
	.st0{fill:none;stroke:#10BAE2;stroke-width:2;stroke-miterlimit:10;}
	.st1{fill:none;}
	.st2{fill:#10BAE2;stroke:#10BAE2;stroke-width:2;stroke-miterlimit:10;}
</style>
<path class="st0" d="M197.6,378.9H-16.3c-3.3,0-6-2.7-6-6v-44.2c0-3.3,2.7-6,6-6h213.9c3.3,0,6,2.7,6,6v44.2
	C203.6,376.2,200.9,378.9,197.6,378.9z"/>
<path class="st0" d="M196.6,519.1h-50.7c-3.8,0-7-3.2-7-7V394.9c0-3.9,3.2-7,7-7h50.7c3.8,0,7,3.1,7,7v117.2
	C203.6,516,200.4,519.1,196.6,519.1z"/>
<circle class="st1" cx="54.1" cy="453.5" r="50"/>
<path class="st2" d="M123.5,387.8H-15.3c-3.8,0-7,3.2-7,7V512c0,3.8,3.2,7,7,7h138.8c3.9,0,7-3.2,7-7V394.8
	C130.5,390.9,127.3,387.8,123.5,387.8z M54.1,503.5c-27.6,0-50-22.4-50-50s22.4-50,50-50c27.6,0,50,22.4,50,50
	S81.7,503.5,54.1,503.5z M109.5,413.5c-5.5,0-10-4.5-10-10s4.5-10,10-10s10,4.5,10,10S115,413.5,109.5,413.5z"/>
</svg>
