<?xml version="1.0" encoding="utf-8"?>
<!-- Generator: Adobe Illustrator 16.0.0, SVG Export Plug-In . SVG Version: 6.00 Build 0)  -->
<!DOCTYPE svg PUBLIC "-//W3C//DTD SVG 1.1//EN" "http://www.w3.org/Graphics/SVG/1.1/DTD/svg11.dtd">
<svg version="1.1" xmlns="http://www.w3.org/2000/svg" xmlns:xlink="http://www.w3.org/1999/xlink" x="0px" y="0px" width="300px"
	 height="300px" viewBox="0 0 300 300" enable-background="new 0 0 300 300" xml:space="preserve">
<g id="Layer_1">
</g>
<g id="Layer_2">
	<polygon fill="#00B2EE" points="141.828,120.829 180.109,158.621 193.667,144.679 141.729,92.358 	"/>
	<path fill="#00B2EE" d="M5.333,7.667v280.667h289.333V7.667H5.333z M68.431,219.838h-9.127l47.048-57.484l-9.675-11.952
		l-57.103,69.437h-2.466l58.242-71.146L36.918,77.551h7.516l70.29,84.953L68.431,219.838z M123.238,219.838h-4.744l-0.11-70.278
		l-59.27-72.009h2.656l56.431,68.93l-0.071-68.93h5.108V219.838z M263.081,220.012l-7.235,0.039V106.6l-13.836,13.837l-0.295,99.614
		h-2.945v-96.377l-48.374,48.568l-2.455-2.229l67.406-67.154l0.316-13.683l-74.835,73.444l-39-38.947l0.049,96.377h-5.648V78.876
		l61.257,61.985l65.595-64.912V220.012z"/>
</g>
</svg>
